<?xml version="1.0" encoding="UTF-8" standalone="no"?>
<svg width="100px" height="100px" viewBox="0 0 100 100" version="1.1" xmlns="http://www.w3.org/2000/svg" xmlns:xlink="http://www.w3.org/1999/xlink">
    <!-- Generator: Sketch 39.1 (31720) - http://www.bohemiancoding.com/sketch -->
    <title>uEA06-rescue</title>
    <desc>Created with Sketch.</desc>
    <defs></defs>
    <g id="Page-1" stroke="none" stroke-width="1" fill="none" fill-rule="evenodd">
        <g id="uEA06-rescue" fill="#F15F79">
            <g id="Assets">
                <g>
                    <g id="Web">
                        <g id="uEA06-rescue">
                            <path d="M50,100 C77.6142375,100 100,77.6142375 100,50 C100,22.3857625 77.6142375,0 50,0 C22.3857625,0 0,22.3857625 0,50 C0,77.6142375 22.3857625,100 50,100 L50,100 L50,100 Z M50,98.0392157 C23.4686738,98.0392157 1.96078431,76.5313262 1.96078431,50 C1.96078431,23.4686738 23.4686738,1.96078431 50,1.96078431 C76.5313262,1.96078431 98.0392157,23.4686738 98.0392157,50 C98.0392157,76.5313262 76.5313262,98.0392157 50,98.0392157 L50,98.0392157 L50,98.0392157 Z" id="Oval"></path>
                            <path d="M50,74.6995573 C63.6411888,74.6995573 74.6995573,63.6411888 74.6995573,50 C74.6995573,36.3588112 63.6411888,25.3004427 50,25.3004427 C36.3588112,25.3004427 25.3004427,36.3588112 25.3004427,50 C25.3004427,63.6411888 36.3588112,74.6995573 50,74.6995573 L50,74.6995573 L50,74.6995573 Z M50,72.7387729 C37.4417225,72.7387729 27.2612271,62.5582775 27.2612271,50 C27.2612271,37.4417225 37.4417225,27.2612271 50,27.2612271 C62.5582775,27.2612271 72.7387729,37.4417225 72.7387729,50 C72.7387729,62.5582775 62.5582775,72.7387729 50,72.7387729 L50,72.7387729 L50,72.7387729 Z" id="Oval"></path>
                            <polygon id="Shape" points="41.4927261 27.8621125 41.4927261 0.980392157 39.5319418 0.980392157 39.5319418 27.8621125"></polygon>
                            <polygon id="Shape" points="60.4680582 27.8621125 60.4680582 0.980392157 58.5072739 0.980392157 58.5072739 27.8621125"></polygon>
                            <polygon id="Shape" points="41.4927261 99.0196078 41.4927261 72.1378875 39.5319418 72.1378875 39.5319418 99.0196078"></polygon>
                            <polygon id="Shape" points="60.4680582 99.0196078 60.4680582 72.1378875 58.5072739 72.1378875 58.5072739 99.0196078"></polygon>
                            <polygon id="Shape" points="72.1378875 41.4927261 99.0196078 41.4927261 99.0196078 39.5319418 72.1378875 39.5319418"></polygon>
                            <polygon id="Shape" points="72.1378875 60.4680582 99.0196078 60.4680582 99.0196078 58.5072739 72.1378875 58.5072739"></polygon>
                            <polygon id="Shape" points="0.980392157 41.4927261 27.8621125 41.4927261 27.8621125 39.5319418 0.980392157 39.5319418"></polygon>
                            <polygon id="Shape" points="0.980392157 60.4680582 27.8621125 60.4680582 27.8621125 58.5072739 0.980392157 58.5072739"></polygon>
                        </g>
                    </g>
                </g>
            </g>
        </g>
    </g>
</svg>