<?xml version="1.0" encoding="UTF-8" standalone="no"?>
<svg width="100px" height="100px" viewBox="0 0 100 100" version="1.1" xmlns="http://www.w3.org/2000/svg" xmlns:xlink="http://www.w3.org/1999/xlink">
    <!-- Generator: Sketch 39.1 (31720) - http://www.bohemiancoding.com/sketch -->
    <title>uEA05-molecule</title>
    <desc>Created with Sketch.</desc>
    <defs></defs>
    <g id="Page-1" stroke="none" stroke-width="1" fill="none" fill-rule="evenodd">
        <g id="uEA05-molecule" fill="#F15F79">
            <g id="Assets">
                <g>
                    <g id="Web">
                        <g id="uEA05-molecule">
                            <path d="M80.0442758,39.9114484 C91.0655179,39.9114484 100,30.9769664 100,19.9557242 C100,8.93448207 91.0655179,0 80.0442758,0 C69.0230336,0 60.0885516,8.93448207 60.0885516,19.9557242 C60.0885516,30.9769664 69.0230336,39.9114484 80.0442758,39.9114484 L80.0442758,39.9114484 L80.0442758,39.9114484 Z M80.0442758,37.9506641 C70.1059449,37.9506641 62.0493359,29.8940551 62.0493359,19.9557242 C62.0493359,10.0173933 70.1059449,1.96078431 80.0442758,1.96078431 C89.9826067,1.96078431 98.0392157,10.0173933 98.0392157,19.9557242 C98.0392157,29.8940551 89.9826067,37.9506641 80.0442758,37.9506641 L80.0442758,37.9506641 L80.0442758,37.9506641 Z" id="Oval"></path>
                            <path d="M16.7931689,82.6059456 C26.06778,82.6059456 33.5863377,75.0873878 33.5863377,65.8127768 C33.5863377,56.5381657 26.06778,49.0196078 16.7931689,49.0196078 C7.5185578,49.0196078 0,56.5381657 0,65.8127768 C0,75.0873878 7.5185578,82.6059456 16.7931689,82.6059456 L16.7931689,82.6059456 L16.7931689,82.6059456 Z M16.7931689,80.6451613 C8.60146908,80.6451613 1.96078431,74.0044766 1.96078431,65.8127768 C1.96078431,57.621077 8.60146908,50.9803922 16.7931689,50.9803922 C24.9848687,50.9803922 31.6255534,57.621077 31.6255534,65.8127768 C31.6255534,74.0044766 24.9848687,80.6451613 16.7931689,80.6451613 L16.7931689,80.6451613 L16.7931689,80.6451613 Z" id="Oval"></path>
                            <path d="M75.3004427,100 C82.8284227,100 88.9310563,93.8973665 88.9310563,86.3693865 C88.9310563,78.8414065 82.8284227,72.7387729 75.3004427,72.7387729 C67.7724627,72.7387729 61.6698292,78.8414065 61.6698292,86.3693865 C61.6698292,93.8973665 67.7724627,100 75.3004427,100 L75.3004427,100 L75.3004427,100 Z M75.3004427,98.0392157 C68.855374,98.0392157 63.6306135,92.8144552 63.6306135,86.3693865 C63.6306135,79.9243177 68.855374,74.6995573 75.3004427,74.6995573 C81.7455115,74.6995573 86.970272,79.9243177 86.970272,86.3693865 C86.970272,92.8144552 81.7455115,98.0392157 75.3004427,98.0392157 L75.3004427,98.0392157 L75.3004427,98.0392157 Z" id="Oval"></path>
                            <polygon id="Shape" points="63.0143299 83.8778375 31.3887765 71.2276162 30.6605594 73.0481587 62.2861128 85.6983801"></polygon>
                            <polygon id="Shape" points="29.9697388 55.5709522 64.7578475 33.4330647 63.7051505 31.7788265 28.9170418 53.9167139"></polygon>
                        </g>
                    </g>
                </g>
            </g>
        </g>
    </g>
</svg>