<?xml version="1.0" encoding="UTF-8" standalone="no"?>
<svg width="100px" height="100px" viewBox="0 0 100 100" version="1.1" xmlns="http://www.w3.org/2000/svg" xmlns:xlink="http://www.w3.org/1999/xlink">
    <!-- Generator: Sketch 39.1 (31720) - http://www.bohemiancoding.com/sketch -->
    <title>uEA01-logo</title>
    <desc>Created with Sketch.</desc>
    <defs></defs>
    <g id="Page-1" stroke="none" stroke-width="1" fill="none" fill-rule="evenodd">
        <g id="uEA01-logo" fill="#A0518E">
            <g id="Assets">
                <g>
                    <g id="Web">
                        <g id="uEA01-logo">
                            <path d="M92.5718706,85.8140168 C91.2906673,85.8140168 90.091631,86.1725048 89.069586,86.7942274 L61.7240915,59.4485183 C61.6764647,59.4008915 61.6260489,59.358199 61.574346,59.3178664 C63.7169075,56.679729 65.0041177,53.3203248 65.0041177,49.6648622 C65.0041177,46.0141194 63.7201255,42.6590059 61.5827129,40.0223702 L80.2232336,21.3818495 C82.2244165,22.9059064 84.7192445,23.8133897 87.4230296,23.8133897 C93.9884455,23.8133897 99.3297244,18.4721107 99.3297244,11.9066948 C99.3297244,5.34127894 93.9884455,-5.92118946e-14 87.4230296,-5.92118946e-14 C80.8576137,-5.92118946e-14 75.5163348,5.34127894 75.5163348,11.9066948 C75.5163348,14.61048 76.423818,17.105308 77.9478749,19.1062763 L59.3073542,37.746797 C56.6707185,35.6095989 53.315605,34.3256067 49.6648622,34.3256067 C46.0141194,34.3256067 42.6590059,35.6095989 40.0223702,37.7470116 L31.4145807,29.1392221 C32.0363033,28.1171771 32.3947913,26.9181408 32.3947913,25.6369375 C32.3947913,21.9106784 29.3631967,18.8790837 25.6369375,18.8790837 C21.9106784,18.8790837 18.8790837,21.9106784 18.8790837,25.6369375 C18.8790837,29.3631967 21.9106784,32.3947913 25.6369375,32.3947913 C26.9181408,32.3947913 28.1171771,32.0363033 29.1392221,31.4145807 L37.7470116,40.0223702 C35.6095989,42.6590059 34.3256067,46.0141194 34.3256067,49.6648622 C34.3256067,51.7355544 34.7403029,53.710564 35.487314,55.5143747 L15.0198128,66.600902 C13.4644338,64.7102047 11.1077663,63.5023724 8.47413416,63.5023724 C3.80156094,63.5023724 0,67.3039334 0,71.9765066 C0,76.6490798 3.80156094,80.4506407 8.47413416,80.4506407 C13.1467074,80.4506407 16.9482683,76.6490798 16.9482683,71.9765066 C16.9482683,71.0889751 16.8105368,70.2331948 16.5563128,69.4286884 L37.0246721,58.341732 C39.7930323,62.3619041 44.4252729,65.0041177 49.6648622,65.0041177 C50.2526882,65.0041177 50.8319328,64.9676468 51.4028106,64.9028572 L53.5359325,74.5017986 C51.3079861,75.6077267 49.7721297,77.9062551 49.7721297,80.5579083 C49.7721297,84.2841674 52.8037244,87.3157621 56.5299836,87.3157621 C60.2562427,87.3157621 63.2878374,84.2841674 63.2878374,80.5579083 C63.2878374,76.8809922 60.3356207,73.8826504 56.6773691,73.8037015 L54.5440327,64.203902 C56.2976421,63.6139306 57.9107311,62.7171742 59.318081,61.574346 C59.3584135,61.6260489 59.401106,61.6764647 59.4487328,61.7240915 L86.7942274,89.069586 C86.1725048,90.091631 85.8140168,91.2906673 85.8140168,92.5718706 C85.8140168,96.2981297 88.8456115,99.3297244 92.5718706,99.3297244 C96.2981297,99.3297244 99.3297244,96.2981297 99.3297244,92.5718706 C99.3297244,88.8456115 96.2981297,85.8140168 92.5718706,85.8140168 L92.5718706,85.8140168 L92.5718706,85.8140168 Z M8.47413416,77.2326151 C5.57598028,77.2326151 3.21802563,74.8746605 3.21802563,71.9765066 C3.21802563,69.0783527 5.57598028,66.720398 8.47413416,66.720398 C11.372288,66.720398 13.7302427,69.0783527 13.7302427,71.9765066 C13.7302427,74.8746605 11.372288,77.2326151 8.47413416,77.2326151 L8.47413416,77.2326151 L8.47413416,77.2326151 Z M60.0698117,80.5579083 C60.0698117,82.5097481 58.4818234,84.0977364 56.5299836,84.0977364 C54.5781437,84.0977364 52.9901554,82.5097481 52.9901554,80.5579083 C52.9901554,78.6060684 54.5781437,77.0180801 56.5299836,77.0180801 C58.4818234,77.0180801 60.0698117,78.6060684 60.0698117,80.5579083 L60.0698117,80.5579083 L60.0698117,80.5579083 Z M87.4230296,3.21802563 C92.2140262,3.21802563 96.1116988,7.11569827 96.1116988,11.9066948 C96.1116988,16.6976914 92.2140262,20.595364 87.4230296,20.595364 C82.632033,20.595364 78.7343604,16.6976914 78.7343604,11.9066948 C78.7343604,7.11569827 82.632033,3.21802563 87.4230296,3.21802563 L87.4230296,3.21802563 L87.4230296,3.21802563 Z M22.0971093,25.6369375 C22.0971093,23.6850977 23.6850977,22.0971093 25.6369375,22.0971093 C27.5887773,22.0971093 29.1767657,23.6850977 29.1767657,25.6369375 C29.1767657,27.5887773 27.5887773,29.1767657 25.6369375,29.1767657 C23.6850977,29.1767657 22.0971093,27.5887773 22.0971093,25.6369375 L22.0971093,25.6369375 L22.0971093,25.6369375 Z M49.6648622,61.7860921 C42.9812375,61.7860921 37.5436323,56.3484869 37.5436323,49.6648622 C37.5436323,42.9812375 42.9812375,37.5436323 49.6648622,37.5436323 C56.3484869,37.5436323 61.7860921,42.9812375 61.7860921,49.6648622 C61.7860921,56.3484869 56.3484869,61.7860921 49.6648622,61.7860921 L49.6648622,61.7860921 L49.6648622,61.7860921 Z M92.5718706,96.1116988 C90.6200308,96.1116988 89.0320424,94.5237104 89.0320424,92.5718706 C89.0320424,90.6200308 90.6200308,89.0320424 92.5718706,89.0320424 C94.5237104,89.0320424 96.1116988,90.6200308 96.1116988,92.5718706 C96.1116988,94.5237104 94.5237104,96.1116988 92.5718706,96.1116988 L92.5718706,96.1116988 L92.5718706,96.1116988 Z" id="Shape"></path>
                            <path d="M49.6648622,41.1907281 C48.7762581,41.1907281 48.0558494,41.9111367 48.0558494,42.7997409 C48.0558494,43.688345 48.7762581,44.4087537 49.6648622,44.4087537 C52.5630161,44.4087537 54.9209707,46.7667083 54.9209707,49.6648622 C54.9209707,50.5534664 55.6413794,51.273875 56.5299836,51.273875 C57.4185877,51.273875 58.1389964,50.5534664 58.1389964,49.6648622 C58.1389964,44.992289 54.3374354,41.1907281 49.6648622,41.1907281 L49.6648622,41.1907281 L49.6648622,41.1907281 Z" id="Shape"></path>
                            <path d="M87.4230296,10.083147 C88.4285553,10.083147 89.2465775,10.9011691 89.2465775,11.9066948 C89.2465775,12.795299 89.9669861,13.5157076 90.8555903,13.5157076 C91.7441944,13.5157076 92.4646031,12.795299 92.4646031,11.9066948 C92.4646031,9.12674975 90.2029747,6.86512134 87.4230296,6.86512134 C86.5344255,6.86512134 85.8140168,7.58553001 85.8140168,8.47413416 C85.8140168,9.3627383 86.5344255,10.083147 87.4230296,10.083147 L87.4230296,10.083147 L87.4230296,10.083147 Z" id="Shape"></path>
                        </g>
                    </g>
                </g>
            </g>
        </g>
    </g>
</svg>