<?xml version="1.0" encoding="UTF-8" standalone="no"?>
<svg width="102px" height="100px" viewBox="0 0 102 100" version="1.1" xmlns="http://www.w3.org/2000/svg" xmlns:xlink="http://www.w3.org/1999/xlink">
    <!-- Generator: Sketch 39.1 (31720) - http://www.bohemiancoding.com/sketch -->
    <title>uEA03-github</title>
    <desc>Created with Sketch.</desc>
    <defs></defs>
    <g id="Page-1" stroke="none" stroke-width="1" fill="none" fill-rule="evenodd">
        <g id="uEA03-github" fill="#000000">
            <g id="Assets">
                <g>
                    <g id="Web">
                        <path d="M95.1587024,25.5255014 C90.5985198,17.6743364 84.4102835,11.4583187 76.598058,6.87540081 C68.7817679,2.29145901 60.2533214,-7.93809463e-15 51.0005144,-7.93809463e-15 C41.7476963,-7.93809463e-15 33.215179,2.29145901 25.3988838,6.87540081 C17.5866645,11.4583187 11.4014802,17.6743364 6.84129559,25.5255014 C2.28009229,33.3797382 0,41.9547912 0,51.2537324 C0,62.4212672 3.24388513,72.4635507 9.72655985,81.3826299 C16.2133104,90.3017082 24.5909692,96.4767711 34.8625913,99.9006482 C36.0566349,100.12488 36.9440167,99.9692489 37.5165871,99.4368282 C38.0942509,98.9013352 38.3805356,98.232737 38.3805356,97.4330812 C38.3805356,97.3009998 38.3683101,96.1010047 38.3489527,93.8289987 C38.3245017,91.5621136 38.3122752,89.5819157 38.3122752,87.8904553 L36.7881385,88.1576894 C35.8131399,88.3378938 34.5834386,88.4136609 33.1031103,88.3901118 C31.6187072,88.3696341 30.0782691,88.2140027 28.4868908,87.9221957 C26.8914376,87.6344828 25.4100906,86.9699808 24.0377563,85.9225437 C22.6644032,84.8781791 21.6934794,83.5102661 21.1168343,81.8188058 L20.4515526,80.2829749 C20.0104084,79.2590879 19.3135438,78.1276925 18.3619775,76.8795744 C17.407354,75.6355525 16.4445799,74.7877738 15.4736561,74.3434067 L15.0070423,74.011667 C14.6973244,73.7874359 14.4110397,73.5202018 14.1441115,73.2079161 C13.8771842,72.8997265 13.6785164,72.5874408 13.5470902,72.2761789 C13.4156639,71.9638932 13.5226392,71.7079217 13.8771842,71.5082634 C14.2317293,71.3034863 14.8766348,71.2082652 15.8037502,71.2082652 L17.1322761,71.4079224 C18.0166008,71.5840316 19.114876,72.1195247 20.4199697,73.0082578 C21.7250623,73.9000634 22.7999052,75.0560317 23.6394028,76.4792351 C24.6582108,78.3027779 25.8838364,79.6911686 27.3244311,80.65055 C28.7650258,81.6068611 30.2137712,82.0829685 31.674741,82.0829685 C33.1346932,82.0829685 34.3969962,81.9703411 35.4596136,81.7512289 C36.52223,81.5269978 37.5165871,81.1952581 38.4477773,80.750891 C38.8461307,77.7672848 39.9321804,75.4758259 41.699812,73.8754905 C39.1762248,73.6072316 36.908358,73.2079161 34.8941752,72.6713993 C32.8799914,72.1400024 30.798567,71.2717459 28.6539757,70.0676546 C26.5053097,68.8686833 24.7223954,67.37688 23.3052339,65.6004362 C21.8921473,63.8209207 20.7266305,61.4813391 19.8229473,58.5929539 C18.9151894,55.6974017 18.4618198,52.3615781 18.4618198,48.5824114 C18.4618198,43.1988139 20.2090763,38.6158959 23.7076632,34.8316098 C22.0673819,30.7841847 22.2222404,26.2493894 24.1732583,21.2210808 C25.4539,20.8176693 27.3600898,21.1217637 29.8836771,22.1210774 C32.4072644,23.1214148 34.2533445,23.9814799 35.427011,24.6889858 C36.6016972,25.4005872 37.541038,26.0046805 38.2491094,26.4930746 C42.3681508,25.3371062 46.6186155,24.7575863 51.0005144,24.7575863 C55.3813845,24.7575863 59.6318502,25.3371062 63.7508926,26.4930746 L66.2744799,24.8886438 C67.9972835,23.8207296 70.0348975,22.8449654 72.3832572,21.9531599 C74.727532,21.0654499 76.5216551,20.8217648 77.7635789,21.2210808 C79.7533137,26.2493894 79.9326161,30.7841847 78.2933565,34.8357053 C81.7909277,38.6158959 83.5381802,43.1988139 83.5381802,48.5824114 C83.5381802,52.3615781 83.0848156,55.7096884 82.1770577,58.6257184 C81.2703185,61.5407244 80.0997041,63.8772345 78.6591124,65.6321767 C77.2185207,67.3922383 75.4274537,68.8686833 73.2787907,70.0717508 C71.1331736,71.2717459 69.0517553,72.1400024 67.0385902,72.6713993 C65.0244064,73.2079161 62.7565346,73.6072316 60.2329473,73.8754905 C62.5334178,75.8792376 63.6836479,79.0348568 63.6836479,83.3505405 L63.6836479,97.4330812 C63.6836479,98.232737 63.961785,98.9013352 64.5150029,99.4327321 C65.0682108,99.9651538 65.940314,100.12488 67.1374148,99.9006482 C77.4090288,96.472675 85.7866967,90.3017082 92.2693694,81.3785338 C98.7571356,72.4594546 102,62.4171717 102,51.2506608 C101.995925,41.9547912 99.7158389,33.3797382 95.1587024,25.5255014 L95.1587024,25.5255014 L95.1587024,25.5255014 Z" id="uEA03-github"></path>
                    </g>
                </g>
            </g>
        </g>
    </g>
</svg>