<?xml version="1.0" encoding="UTF-8" standalone="no"?>
<svg width="100px" height="100px" viewBox="0 0 100 100" version="1.1" xmlns="http://www.w3.org/2000/svg" xmlns:xlink="http://www.w3.org/1999/xlink">
    <!-- Generator: Sketch 39.1 (31720) - http://www.bohemiancoding.com/sketch -->
    <title>uEA04-tools</title>
    <desc>Created with Sketch.</desc>
    <defs></defs>
    <g id="Page-1" stroke="none" stroke-width="1" fill="none" fill-rule="evenodd">
        <g id="uEA04-tools" fill="#F15F79">
            <g id="Assets">
                <g>
                    <g id="Web">
                        <g id="uEA04-tools">
                            <path d="M1.94174757,99.0291262 L1.94174757,3.50767304 L0.284362349,4.19418448 L95.8058155,99.7156379 L96.492327,98.0582524 L0.970873786,98.0582524 L1.94174757,99.0291262 L1.94174757,99.0291262 L1.94174757,99.0291262 Z M0,99.0291262 L0,100 L0.970873786,100 L96.492327,100 L98.8362233,100 L97.1788388,98.3426146 L1.65738522,2.82116159 L0,1.16377637 L0,3.50767304 L0,99.0291262 L0,99.0291262 L0,99.0291262 Z" id="Shape"></path>
                            <path d="M22.2987785,84.9357971 L22.2987785,47.3535859 L20.6413934,48.0400974 L58.2236045,85.6223084 L58.9101159,83.9649233 L21.3279048,83.9649233 L22.2987785,84.9357971 L22.2987785,84.9357971 L22.2987785,84.9357971 Z M20.357031,84.9357971 L20.357031,85.9066709 L21.3279048,85.9066709 L58.9101159,85.9066709 L61.2540125,85.9066709 L59.5966273,84.2492856 L22.0144162,46.6670746 L20.357031,45.0096893 L20.357031,47.3535859 L20.357031,84.9357971 L20.357031,84.9357971 L20.357031,84.9357971 Z" id="Shape"></path>
                            <polygon id="Shape" points="11.932352 33.8553084 2.53679925 33.8553084 2.53679925 35.797056 11.932352 35.797056"></polygon>
                            <polygon id="Shape" points="8.8005011 46.3827121 2.53679925 46.3827121 2.53679925 48.3244597 8.8005011 48.3244597"></polygon>
                            <polygon id="Shape" points="11.932352 58.9101159 2.53679925 58.9101159 2.53679925 60.8518635 11.932352 60.8518635"></polygon>
                            <polygon id="Shape" points="8.8005011 71.4375196 2.53679925 71.4375196 2.53679925 73.3792672 8.8005011 73.3792672"></polygon>
                            <polygon id="Shape" points="11.932352 83.9649233 2.53679925 83.9649233 2.53679925 85.9066709 11.932352 85.9066709"></polygon>
                            <path d="M37.8665734,1.25523614 L28.4710207,10.6507889 L27.7845092,11.3373004 L28.4710207,12.0238117 L84.8443373,68.3971284 L85.03449,68.5872811 L85.2953773,68.6525029 L97.8227806,71.7843538 L99.3925913,72.1768063 L99.0001388,70.6069964 L95.8682874,58.0795927 L95.8030656,57.8187054 L95.6129129,57.6285527 L39.2395963,1.25523614 L38.5530849,0.568724697 L37.8665734,1.25523614 L37.8665734,1.25523614 L37.8665734,1.25523614 Z M39.2395963,2.62825901 L37.8665734,2.62825901 L94.2398901,59.0015756 L93.9845155,58.5505357 L97.116366,71.0779394 L98.2937243,69.9005819 L85.7663202,66.7687311 L86.2173602,67.0241055 L29.8440435,10.6507889 L29.8440435,12.0238117 L39.2395963,2.62825901 L39.2395963,2.62825901 L39.2395963,2.62825901 Z" id="Shape"></path>
                            <polygon id="Shape" points="39.2395963 21.4193646 48.6351491 12.0238117 47.2621262 10.6507889 37.8665734 20.0463417"></polygon>
                        </g>
                    </g>
                </g>
            </g>
        </g>
    </g>
</svg>