<?xml version="1.0" encoding="UTF-8" standalone="no"?>
<svg width="185px" height="100px" viewBox="0 0 185 100" version="1.1" xmlns="http://www.w3.org/2000/svg" xmlns:xlink="http://www.w3.org/1999/xlink">
    <!-- Generator: Sketch 39.1 (31720) - http://www.bohemiancoding.com/sketch -->
    <title>uEA08-glide</title>
    <desc>Created with Sketch.</desc>
    <defs></defs>
    <g id="Page-1" stroke="none" stroke-width="1" fill="none" fill-rule="evenodd">
        <g id="uEA08-glide" fill="#000000">
            <g id="Assets">
                <g>
                    <g id="Web">
                        <path d="M141.136282,2.970155 C139.160973,0.992449 136.809301,0 134.102841,0 C131.39638,0 129.056694,0.992449 127.071797,2.970155 C125.096488,4.945463 124.104039,7.294738 124.104039,10.001199 L124.104039,30.003596 L59.995206,30.003596 L59.995206,10.001199 C59.995206,7.294738 59.012346,4.945463 57.027448,2.970155 C55.05214,0.992449 52.710056,0 49.994007,0 C47.289944,0 44.94786,0.992449 42.972552,2.970155 L2.967757,42.962963 C0.992449,44.94786 0,47.289944 0,49.996404 C0,52.702865 0.992449,55.05214 2.967757,57.027448 L42.972552,97.032243 C44.94786,99.007551 47.289944,100 49.994007,100 C52.710056,100 55.05214,99.007551 57.027448,97.032243 C59.012346,95.047345 59.995206,92.705262 59.995206,89.998801 L59.995206,69.998801 L124.111231,69.998801 L124.111231,89.998801 C124.111231,92.705262 125.096488,95.056934 127.071797,97.032243 C129.056694,99.007551 131.39638,100 134.11243,100 C136.81889,100 139.160973,99.007551 141.136282,97.032243 L181.138679,57.027448 C183.116385,55.05214 184.108834,52.702865 184.108834,49.996404 C184.108834,47.289944 183.116385,44.94786 181.138679,42.962963 L141.136282,2.970155 L141.136282,2.970155 Z" id="uEA08-glide"></path>
                    </g>
                </g>
            </g>
        </g>
    </g>
</svg>