<?xml version="1.0" encoding="UTF-8" standalone="no"?>
<svg width="100px" height="100px" viewBox="0 0 100 100" version="1.1" xmlns="http://www.w3.org/2000/svg" xmlns:xlink="http://www.w3.org/1999/xlink">
    <!-- Generator: Sketch 39.1 (31720) - http://www.bohemiancoding.com/sketch -->
    <title>uEA07-search</title>
    <desc>Created with Sketch.</desc>
    <defs></defs>
    <g id="Page-1" stroke="none" stroke-width="1" fill="none" fill-rule="evenodd">
        <g id="uEA07-search" fill="#F15F79">
            <g id="Assets">
                <g>
                    <g id="Web">
                        <g id="uEA07-search">
                            <path d="M32.289383,64.578766 C50.1223169,64.578766 64.578766,50.1223169 64.578766,32.289383 C64.578766,14.4564492 50.1223169,0 32.289383,0 C14.4564492,0 0,14.4564492 0,32.289383 C0,50.1223169 14.4564492,64.578766 32.289383,64.578766 L32.289383,64.578766 L32.289383,64.578766 Z M32.289383,62.6370184 C15.5288468,62.6370184 1.94174757,49.0499193 1.94174757,32.289383 C1.94174757,15.5288468 15.5288468,1.94174757 32.289383,1.94174757 C49.0499193,1.94174757 62.6370184,15.5288468 62.6370184,32.289383 C62.6370184,49.0499193 49.0499193,62.6370184 32.289383,62.6370184 L32.289383,62.6370184 L32.289383,62.6370184 Z" id="Oval"></path>
                            <polygon id="Shape" points="53.5258281 54.898851 62.9213809 64.2944037 64.2944037 62.9213809 54.898851 53.5258281"></polygon>
                            <path d="M97.3730223,87.9756674 L87.9778708,97.3708184 L89.3508805,97.3708184 L59.5986459,67.618584 L59.5986459,68.9915937 L68.9937971,59.5964425 L67.6207874,59.5964425 L97.3730223,89.3486771 L97.3730223,87.9756674 L97.3730223,87.9756674 L97.3730223,87.9756674 Z M98.746032,89.3486771 L99.4325369,88.6621722 L98.746032,87.9756674 L68.9937971,58.2234328 L68.3072922,57.536928 L67.6207874,58.2234328 L58.2256362,67.618584 L57.5391314,68.3050888 L58.2256362,68.9915937 L87.9778708,98.7438282 L88.6643756,99.430333 L89.3508805,98.7438282 L98.746032,89.3486771 L98.746032,89.3486771 L98.746032,89.3486771 Z" id="Rectangle-path"></path>
                        </g>
                    </g>
                </g>
            </g>
        </g>
    </g>
</svg>