<?xml version="1.0" encoding="UTF-8" standalone="no"?>
<svg width="48px" height="48px" viewBox="0 0 48 48" version="1.1" xmlns="http://www.w3.org/2000/svg" xmlns:xlink="http://www.w3.org/1999/xlink">
    <!-- Generator: Sketch 3.6.1 (26313) - http://www.bohemiancoding.com/sketch -->
    <title>uEA01-logo</title>
    <desc>Created with Sketch.</desc>
    <defs></defs>
    <g id="Assets" stroke="none" stroke-width="1" fill="none" fill-rule="evenodd">
        <g id="uEA01-logo" fill="#A0518E">
            <path d="M44.4344979,41.1907281 C43.8195203,41.1907281 43.2439829,41.3628023 42.7534013,41.6612291 L29.6275639,28.5352888 C29.604703,28.5124279 29.5805035,28.4919355 29.5556861,28.4725759 C30.5841156,27.2062699 31.2019765,25.5937559 31.2019765,23.8391339 C31.2019765,22.0867773 30.5856602,20.4763228 29.5597022,19.2107377 L38.5071521,10.2632878 C39.4677199,10.9948351 40.6652373,11.430427 41.9630542,11.430427 C45.1144538,11.430427 47.6782677,8.86661314 47.6782677,5.71521352 C47.6782677,2.56381389 45.1144538,-2.84217094e-14 41.9630542,-2.84217094e-14 C38.8116546,-2.84217094e-14 36.2478407,2.56381389 36.2478407,5.71521352 C36.2478407,7.01303038 36.6834326,8.21054782 37.41498,9.17101262 L28.46753,18.1184626 C27.2019449,17.0926075 25.5914904,16.4762912 23.8391339,16.4762912 C22.0867773,16.4762912 20.4763228,17.0926075 19.2107377,18.1185655 L15.0789987,13.9868266 C15.3774256,13.496245 15.5494998,12.9207076 15.5494998,12.30573 C15.5494998,10.5171256 14.0943344,9.06196017 12.30573,9.06196017 C10.5171256,9.06196017 9.06196017,10.5171256 9.06196017,12.30573 C9.06196017,14.0943344 10.5171256,15.5494998 12.30573,15.5494998 C12.9207076,15.5494998 13.496245,15.3774256 13.9868266,15.0789987 L18.1185655,19.2107377 C17.0926075,20.4763228 16.4762912,22.0867773 16.4762912,23.8391339 C16.4762912,24.8330661 16.6753454,25.7810707 17.0339107,26.6468998 L7.20951015,31.968433 C6.46292821,31.0608983 5.33172784,30.4811388 4.0675844,30.4811388 C1.82474925,30.4811388 0,32.305888 0,34.5487232 C0,36.7915583 1.82474925,38.6163076 4.0675844,38.6163076 C6.31041954,38.6163076 8.13516879,36.7915583 8.13516879,34.5487232 C8.13516879,34.1227081 8.06905767,33.7119335 7.94703014,33.3257704 L17.7718426,28.0040314 C19.1006555,29.933714 21.324131,31.2019765 23.8391339,31.2019765 C24.1212903,31.2019765 24.3993278,31.1844704 24.6733491,31.1533714 L25.6972476,35.7608633 C24.6278333,36.2917088 23.8906223,37.3950025 23.8906223,38.667796 C23.8906223,40.4564004 25.3457877,41.9115658 27.1343921,41.9115658 C28.9229965,41.9115658 30.3781619,40.4564004 30.3781619,38.667796 C30.3781619,36.9028762 28.9610979,35.4636722 27.2051372,35.4257767 L26.1811357,30.817873 C27.0228682,30.5346867 27.7971509,30.1042436 28.4726789,29.5556861 C28.4920385,29.5805035 28.5125309,29.604703 28.5353917,29.6275639 L41.6612291,42.7534013 C41.3628023,43.2439829 41.1907281,43.8195203 41.1907281,44.4344979 C41.1907281,46.2231023 42.6458935,47.6782677 44.4344979,47.6782677 C46.2231023,47.6782677 47.6782677,46.2231023 47.6782677,44.4344979 C47.6782677,42.6458935 46.2231023,41.1907281 44.4344979,41.1907281 L44.4344979,41.1907281 Z M4.0675844,37.0716552 C2.67647053,37.0716552 1.5446523,35.939837 1.5446523,34.5487232 C1.5446523,33.1576093 2.67647053,32.0257911 4.0675844,32.0257911 C5.45869826,32.0257911 6.59051649,33.1576093 6.59051649,34.5487232 C6.59051649,35.939837 5.45869826,37.0716552 4.0675844,37.0716552 L4.0675844,37.0716552 Z M28.8335096,38.667796 C28.8335096,39.6046791 28.0712752,40.3669135 27.1343921,40.3669135 C26.197509,40.3669135 25.4352746,39.6046791 25.4352746,38.667796 C25.4352746,37.7309129 26.197509,36.9686784 27.1343921,36.9686784 C28.0712752,36.9686784 28.8335096,37.7309129 28.8335096,38.667796 L28.8335096,38.667796 Z M41.9630542,1.5446523 C44.2627326,1.5446523 46.1336154,3.41553517 46.1336154,5.71521352 C46.1336154,8.01489186 44.2627326,9.88577473 41.9630542,9.88577473 C39.6633759,9.88577473 37.792493,8.01489186 37.792493,5.71521352 C37.792493,3.41553517 39.6633759,1.5446523 41.9630542,1.5446523 L41.9630542,1.5446523 Z M10.6066125,12.30573 C10.6066125,11.3688469 11.3688469,10.6066125 12.30573,10.6066125 C13.2426131,10.6066125 14.0048475,11.3688469 14.0048475,12.30573 C14.0048475,13.2426131 13.2426131,14.0048475 12.30573,14.0048475 C11.3688469,14.0048475 10.6066125,13.2426131 10.6066125,12.30573 L10.6066125,12.30573 Z M23.8391339,29.6573242 C20.630994,29.6573242 18.0209435,27.0472737 18.0209435,23.8391339 C18.0209435,20.630994 20.630994,18.0209435 23.8391339,18.0209435 C27.0472737,18.0209435 29.6573242,20.630994 29.6573242,23.8391339 C29.6573242,27.0472737 27.0472737,29.6573242 23.8391339,29.6573242 L23.8391339,29.6573242 Z M44.4344979,46.1336154 C43.4976148,46.1336154 42.7353804,45.371381 42.7353804,44.4344979 C42.7353804,43.4976148 43.4976148,42.7353804 44.4344979,42.7353804 C45.371381,42.7353804 46.1336154,43.4976148 46.1336154,44.4344979 C46.1336154,45.371381 45.371381,46.1336154 44.4344979,46.1336154 L44.4344979,46.1336154 Z" id="Shape"></path>
            <path d="M23.8391339,19.7715495 C23.4126039,19.7715495 23.0668077,20.1173456 23.0668077,20.5438756 C23.0668077,20.9704056 23.4126039,21.3162018 23.8391339,21.3162018 C25.2302477,21.3162018 26.362066,22.44802 26.362066,23.8391339 C26.362066,24.2656639 26.7078621,24.61146 27.1343921,24.61146 C27.5609221,24.61146 27.9067183,24.2656639 27.9067183,23.8391339 C27.9067183,21.5962987 26.081969,19.7715495 23.8391339,19.7715495 L23.8391339,19.7715495 Z" id="Shape"></path>
            <path d="M41.9630542,4.83991055 C42.4457066,4.83991055 42.8383572,5.23256116 42.8383572,5.71521352 C42.8383572,6.14174351 43.1841533,6.48753967 43.6106833,6.48753967 C44.0372133,6.48753967 44.3830095,6.14174351 44.3830095,5.71521352 C44.3830095,4.38083988 43.2974278,3.29525824 41.9630542,3.29525824 C41.5365242,3.29525824 41.1907281,3.64105441 41.1907281,4.0675844 C41.1907281,4.49411438 41.5365242,4.83991055 41.9630542,4.83991055 L41.9630542,4.83991055 Z" id="Shape"></path>
        </g>
    </g>
</svg>