<?xml version="1.0" encoding="UTF-8" standalone="no"?>
<svg width="48px" height="48px" viewBox="0 0 48 48" version="1.1" xmlns="http://www.w3.org/2000/svg" xmlns:xlink="http://www.w3.org/1999/xlink">
    <!-- Generator: Sketch 3.6.1 (26313) - http://www.bohemiancoding.com/sketch -->
    <title>uEA05-seach</title>
    <desc>Created with Sketch.</desc>
    <defs></defs>
    <g id="Assets" stroke="none" stroke-width="1" fill="none" fill-rule="evenodd">
        <path d="M46.9335694,41.7122372 L37.039345,31.8180128 C39.4239434,28.3758354 40.6167736,24.5388803 40.6167736,20.3082098 C40.6167736,17.5582208 40.0828502,14.9282585 39.0153574,12.4186767 C37.9482186,9.90874087 36.5057756,7.7454304 34.6883824,5.92803718 C32.8709892,4.11064395 30.7080328,2.66820093 28.198451,1.60106218 C25.6881611,0.533569374 23.0581987,0 20.3082098,0 C17.5582208,0 14.9282585,0.533569374 12.4186767,1.60106218 C9.90874087,2.66820093 7.7454304,4.11064395 5.92803718,5.92803718 C4.11064395,7.7454304 2.66820093,9.90909493 1.60106218,12.4186767 C0.533569374,14.9286125 0,17.5582208 0,20.3082098 C0,23.0581987 0.533569374,25.687453 1.60106218,28.1977429 C2.66820093,30.7073246 4.11064395,32.870281 5.92803718,34.6876743 C7.7454304,36.5054216 9.90909493,37.9475105 12.4186767,39.0150033 C14.9286125,40.0824961 17.5582208,40.6160655 20.3082098,40.6160655 C24.5395884,40.6160655 28.3761894,39.4232352 31.8183669,37.0386369 L41.7125913,46.9038283 C42.4047798,47.6346094 43.2693959,48 44.3085638,48 C45.3084311,48 46.1744634,47.6346094 46.9045364,46.9038283 C47.6353175,46.1734012 48.0007081,45.3077229 48.0007081,44.3078557 C48.0010622,43.2892233 47.6455853,42.423545 46.9335694,41.7122372 L46.9335694,41.7122372 Z M29.4383713,29.4376632 C26.9093162,31.9667183 23.8661651,33.2310688 20.3082098,33.2310688 C16.7506085,33.2310688 13.7074574,31.9663642 11.1784023,29.4376632 C8.6493472,26.9086081 7.38499668,23.865811 7.38499668,20.3078557 C7.38499668,16.7502545 8.64970126,13.7067493 11.1784023,11.1780482 C13.7071033,8.64899314 16.7506085,7.38464262 20.3082098,7.38464262 C23.865811,7.38464262 26.9089622,8.6493472 29.4383713,11.1780482 C31.9674264,13.7067493 33.232131,16.7502545 33.232131,20.3078557 C33.232131,23.865811 31.9670724,26.9086081 29.4383713,29.4376632 L29.4383713,29.4376632 Z" id="uEA05-seach" fill="#D8D8D8"></path>
    </g>
</svg>