<?xml version="1.0" encoding="UTF-8" standalone="no"?>
<svg width="49px" height="48px" viewBox="0 0 49 48" version="1.1" xmlns="http://www.w3.org/2000/svg" xmlns:xlink="http://www.w3.org/1999/xlink">
    <!-- Generator: Sketch 3.6.1 (26313) - http://www.bohemiancoding.com/sketch -->
    <title>uEA04-copy</title>
    <desc>Created with Sketch.</desc>
    <defs></defs>
    <g id="Assets" stroke="none" stroke-width="1" fill="none" fill-rule="evenodd">
        <g id="uEA04-copy" transform="translate(0.037594, 0.000000)" fill="#000000">
            <g id="Capa_1">
                <path d="M47.4644384,25.0721096 C47.1070685,24.2146849 46.6783562,23.5361096 46.1786301,23.0360548 L35.2500822,12.1075068 C34.9824658,11.8395616 34.6606027,11.5896986 34.2854795,11.357589 L34.2854795,2.57194521 C34.2854795,1.85753425 34.0356164,1.2499726 33.5355616,0.750246575 C33.0358356,0.250191781 32.4286027,0.000328767123 31.7145205,0.000328767123 L2.57128767,0.000328767123 C1.85720548,0.000328767123 1.2499726,0.250191781 0.749917808,0.750246575 C0.249863014,1.25030137 0,1.85753425 0,2.57194521 L0,38.5719452 C0,39.2860274 0.249863014,39.8929315 0.749917808,40.3926575 C1.2499726,40.8927123 1.85720548,41.1425753 2.57128767,41.1425753 L17.1429041,41.1425753 L17.1429041,45.4283836 C17.1429041,46.1427945 17.3927671,46.7500274 17.8928219,47.2497534 C18.3925479,47.7498082 18.9997808,47.9996712 19.7141918,47.9996712 L45.4290411,47.9996712 C46.1431233,47.9996712 46.7503562,47.7498082 47.2500822,47.2497534 C47.750137,46.7500274 48,46.1427945 48,45.4283836 L48,27.4283836 C48,26.7143014 47.8214795,25.9285479 47.4644384,25.0721096 L47.4644384,25.0721096 Z M34.2854795,15.9912329 L42.2945753,24 L34.2854795,24 L34.2854795,15.9912329 L34.2854795,15.9912329 Z M7.71419178,6.85709589 C7.48208219,6.85709589 7.28120548,6.77227397 7.11156164,6.60263014 C6.94191781,6.4329863 6.85709589,6.23243836 6.85709589,6 L6.85709589,4.28580822 C6.85709589,4.05369863 6.94191781,3.85282192 7.11156164,3.68317808 C7.28120548,3.51353425 7.48208219,3.42871233 7.71419178,3.42871233 L26.5716164,3.42871233 C26.8033973,3.42871233 27.004274,3.51353425 27.1739178,3.68317808 C27.3435616,3.85282192 27.4287123,4.05369863 27.4287123,4.28580822 L27.4287123,6 C27.4287123,6.23243836 27.3432329,6.4329863 27.1739178,6.60263014 C27.0046027,6.77227397 26.8033973,6.85709589 26.5709589,6.85709589 L7.71419178,6.85709589 L7.71419178,6.85709589 Z M44.5709589,44.5716164 L20.5709589,44.5716164 L20.5709589,13.7141918 L30.8570959,13.7141918 L30.8570959,24.8574247 C30.8570959,25.5715068 31.1069589,26.1787397 31.6070137,26.6784658 C32.1067397,27.1785205 32.7136438,27.4283836 33.4280548,27.4283836 L44.5709589,27.4283836 L44.5709589,44.5716164 L44.5709589,44.5716164 Z" id="Shape"></path>
            </g>
        </g>
    </g>
</svg>