<?xml version="1.0" encoding="UTF-8" standalone="no"?>
<svg width="49px" height="48px" viewBox="0 0 49 48" version="1.1" xmlns="http://www.w3.org/2000/svg" xmlns:xlink="http://www.w3.org/1999/xlink">
    <!-- Generator: Sketch 3.6.1 (26313) - http://www.bohemiancoding.com/sketch -->
    <title>uEA03-question</title>
    <desc>Created with Sketch.</desc>
    <defs></defs>
    <g id="Assets" stroke="none" stroke-width="1" fill="none" fill-rule="evenodd">
        <path d="M44.8194898,11.9530134 C42.6734477,8.27616628 39.7621948,5.36491346 36.0853477,3.21887136 C32.4077335,1.07282927 28.3929663,0 24.0383611,0 C19.6841395,0 15.6682216,1.07282927 11.9913745,3.21887136 C8.31414382,5.36452989 5.40289101,8.27578271 3.25684891,11.9530134 C1.11042325,15.630244 0.037593985,19.646162 0.037593985,24 C0.037593985,28.3542216 1.11080682,32.3693724 3.25646535,36.0469866 C5.40250744,39.7234502 8.31376026,42.6350865 11.9909909,44.7811286 C15.6682216,46.9271707 19.6837559,48 24.0379775,48 C28.3921992,48 32.4081171,46.9271707 36.0849642,44.7811286 C39.7618113,42.6354701 42.6730641,39.7238337 44.8191062,36.0469866 C46.9647647,32.369756 48.037594,28.353838 48.037594,24 C48.037594,19.6457784 46.9647647,15.6298605 44.8194898,11.9530134 L44.8194898,11.9530134 Z M28.0385529,39.0000479 C28.0385529,39.2915568 27.9441961,39.5312845 27.7570167,39.7184638 C27.5702209,39.9056432 27.3304933,39.9992329 27.0389844,39.9992329 L21.038505,39.9992329 C20.7469961,39.9992329 20.5072684,39.9056432 20.3197055,39.7184638 C20.1321426,39.5312845 20.0385529,39.2915568 20.0385529,39.0000479 L20.0385529,32.9995685 C20.0385529,32.7080596 20.1321426,32.468332 20.3197055,32.280769 C20.5072684,32.0939732 20.7469961,32.0003836 21.038505,32.0003836 L27.0389844,32.0003836 C27.3304933,32.0003836 27.5702209,32.0939732 27.7570167,32.280769 C27.9441961,32.468332 28.0385529,32.7080596 28.0385529,32.9995685 L28.0385529,39.0000479 L28.0385529,39.0000479 Z M35.6477009,20.5310447 C35.3872608,21.3020089 35.0957519,21.9325886 34.7727908,22.4220166 C34.4498297,22.9114446 33.9861005,23.4116124 33.3816032,23.9217529 C32.7782566,24.4322769 32.2988013,24.7970466 31.9440043,25.0160618 C31.590358,25.2343098 31.0794504,25.5315721 30.4131993,25.9063144 C29.7258521,26.3021528 29.1585606,26.8176631 28.7109411,27.4532291 C28.262938,28.0884116 28.0389365,28.6043055 28.0389365,28.9997603 C28.0389365,29.2916527 27.9445796,29.5313804 27.7574003,29.7185597 C27.5706045,29.9061226 27.3308768,29.9997123 27.039368,29.9997123 L21.0388885,29.9997123 C20.7473797,29.9997123 20.507652,29.9061226 20.3200891,29.7185597 C20.1325261,29.5313804 20.0389365,29.2916527 20.0389365,28.9997603 L20.0389365,27.8743827 C20.0389365,26.4785923 20.5855155,25.1710217 21.6794408,23.952438 C22.7733661,22.7334708 23.9766073,21.8324783 25.2891642,21.249077 C26.2887327,20.7911013 26.9971759,20.3220022 27.4137267,19.8429304 C27.8310446,19.3638587 28.03932,18.7279091 28.03932,17.936616 C28.03932,17.2488853 27.6480845,16.6344153 26.866764,16.092439 C26.0854436,15.5508462 25.1955745,15.2800499 24.1952389,15.2800499 C23.1116698,15.2800499 22.2160473,15.5301338 21.5076041,16.0303016 C20.8198733,16.5300858 19.9242507,17.4886129 18.8199692,18.9051158 C18.6324063,19.1551997 18.3719661,19.2806252 18.0386488,19.2806252 C17.7885649,19.2806252 17.5906457,19.2181042 17.4448913,19.0934458 L13.3200411,15.9685477 C12.8409694,15.5934219 12.7577359,15.1561586 13.0699572,14.6559908 C15.7368796,10.2185357 19.6012896,7.99961644 24.6635709,7.99961644 C26.4766792,7.99961644 28.2475954,8.42690703 29.9767032,9.28110467 C31.7058109,10.1349187 33.1483961,11.3435298 34.305226,12.9061706 C35.4605215,14.4684279 36.03932,16.1664669 36.03932,17.9999041 C36.0381693,18.9166227 35.9073739,19.7600805 35.6477009,20.5310447 L35.6477009,20.5310447 Z" id="uEA03-question" fill="#D8D8D8"></path>
    </g>
</svg>