<?xml version="1.0" encoding="UTF-8" standalone="no"?>
<svg width="79px" height="48px" viewBox="0 0 79 48" version="1.1" xmlns="http://www.w3.org/2000/svg" xmlns:xlink="http://www.w3.org/1999/xlink">
    <!-- Generator: Sketch 3.6.1 (26313) - http://www.bohemiancoding.com/sketch -->
    <title>uEA02-code</title>
    <desc>Created with Sketch.</desc>
    <defs></defs>
    <g id="Assets" stroke="none" stroke-width="1" fill="none" fill-rule="evenodd">
        <path d="M14.3157895,23.518797 C13.293228,24.0200526 12.1303323,24.4210511 10.8270677,24.7218045 C12.1303323,25.0225579 13.293228,25.4235564 14.3157895,25.924812 L22.8571429,30.556391 C23.3984989,30.8170439 23.78446,31.1428552 24.0150376,31.5338346 C24.2456152,31.924814 24.3609023,32.3508749 24.3609023,32.8120301 L24.3609023,39.2781955 L0,26.556391 L0,22.9172932 L24.3609023,10.1654135 L24.3609023,16.6315789 C24.3609023,17.0927341 24.2456152,17.518795 24.0150376,17.9097744 C23.78446,18.3007538 23.3984989,18.6365901 22.8571429,18.9172932 L14.3157895,23.518797 Z M35.3533835,44.6616541 C35.132831,45.2030102 34.8471195,45.6842084 34.4962406,46.1052632 C34.1453617,46.5263179 33.7543881,46.8771916 33.3233083,47.1578947 C32.8922284,47.4385979 32.4310802,47.6491221 31.9398496,47.7894737 C31.4486191,47.9298253 30.9624084,48 30.481203,48 L26.5112782,48 L43.593985,3.15789474 C43.9949895,2.13533323 44.6065122,1.35338617 45.4285714,0.812030075 C46.2506307,0.270673985 47.2030021,0 48.2857143,0 L52.2556391,0 L35.3533835,44.6616541 Z M78.7669173,22.9172932 L78.7669173,26.556391 L54.406015,39.2781955 L54.406015,32.8120301 C54.406015,32.3508749 54.5213021,31.924814 54.7518797,31.5338346 C54.9824573,31.1428552 55.3684183,30.8170439 55.9097744,30.556391 L64.4511278,25.924812 C65.4736893,25.4235564 66.636585,25.0225579 67.9398496,24.7218045 C66.636585,24.4210511 65.4736893,24.0200526 64.4511278,23.518797 L55.9097744,18.9172932 C55.3684183,18.6365901 54.9824573,18.3007538 54.7518797,17.9097744 C54.5213021,17.518795 54.406015,17.0927341 54.406015,16.6315789 L54.406015,10.1654135 L78.7669173,22.9172932 Z" id="uEA02-code" fill="#4A4A4A"></path>
    </g>
</svg>